<?xml version="1.0" encoding="utf-8"?>
<!-- Generator: Adobe Illustrator 18.1.1, SVG Export Plug-In . SVG Version: 6.00 Build 0)  -->
<svg version="1.1" id="Layer_1" xmlns="http://www.w3.org/2000/svg" xmlns:xlink="http://www.w3.org/1999/xlink" x="0px" y="0px"
	 viewBox="0 0 122.4 122.4" enable-background="new 0 0 122.4 122.4" xml:space="preserve">
<path d="M97.5,34.8l3-5l0.4-0.7h-0.8H84.5H84v0.5l0,7.1v0.5h0.5h4.8v4.8h-5h-0.5v0.5v9l0,4.4l0,1.6l0.9-1.4l5.4-8.8h5.4L85.1,64.4
	h-5.7l0-30.3c0,0,0-0.5,0-0.5v-9H109l-6.1,10.2H97.5z M74.4,82.2L58.2,53.3l-0.1-0.2h-0.3h-1.9h-0.5v0.5v39.7l-4.6-7.7V24.5h4.6
	l0,23.3v0.5h0.5h1.9h0.3l0.1-0.2l12.6-23.6h5.5L62.2,50.5l-0.1,0.2l0.1,0.2l15,26.7L74.4,82.2z M47,29.1l-9,0h-0.5v0.5v33.8
	l-0.2-0.3l-4.5-7.4V29.6v-0.5h-0.5h-9.2h-0.8l0.4,0.7l3,5h-5.3l-6.1-10.2H47V29.1z M3.2,18.3c3,5,55.6,92.7,58.4,97.4
	c2.8-4.7,55.4-92.4,58.4-97.4H3.2z"/>
</svg>
